<mxfile host="embed.diagrams.net" modified="2020-09-23T06:06:56.936Z" agent="5.0 (Windows NT 10.0; Win64; x64) AppleWebKit/537.36 (KHTML, like Gecko) Code/1.49.1 Chrome/83.0.4103.122 Electron/9.2.1 Safari/537.36" etag="juH0P2Gp6JGR2bXk30wG" version="13.7.4" type="embed">
    <diagram id="6hGFLwfOUW9BJ-s0fimq" name="Page-1">
        <mxGraphModel dx="1206" dy="536" grid="1" gridSize="10" guides="1" tooltips="1" connect="1" arrows="1" fold="1" page="1" pageScale="1" pageWidth="827" pageHeight="1169" math="0" shadow="0">
            <root>
                <mxCell id="0"/>
                <mxCell id="1" parent="0"/>
                <mxCell id="76" value="" style="edgeStyle=orthogonalEdgeStyle;fontSize=12;html=1;endArrow=ERzeroToMany;endFill=1;exitX=1;exitY=0.5;exitDx=0;exitDy=0;elbow=vertical;rounded=0;" parent="1" source="30" target="125" edge="1">
                    <mxGeometry width="100" height="100" relative="1" as="geometry">
                        <mxPoint x="369.94" y="440" as="sourcePoint"/>
                        <mxPoint x="299.94" y="370" as="targetPoint"/>
                        <Array as="points">
                            <mxPoint x="260" y="365"/>
                        </Array>
                    </mxGeometry>
                </mxCell>
                <mxCell id="109" style="edgeStyle=orthogonalEdgeStyle;rounded=1;orthogonalLoop=1;jettySize=auto;html=1;endArrow=ERzeroToMany;endFill=1;entryX=0.003;entryY=0.2;entryDx=0;entryDy=0;entryPerimeter=0;" parent="1" source="30" target="93" edge="1">
                    <mxGeometry relative="1" as="geometry">
                        <mxPoint x="39.94" y="533" as="targetPoint"/>
                    </mxGeometry>
                </mxCell>
                <mxCell id="112" style="edgeStyle=orthogonalEdgeStyle;rounded=1;orthogonalLoop=1;jettySize=auto;html=1;endArrow=ERzeroToMany;endFill=1;" parent="1" source="81" target="88" edge="1">
                    <mxGeometry relative="1" as="geometry"/>
                </mxCell>
                <mxCell id="121" style="edgeStyle=orthogonalEdgeStyle;rounded=1;orthogonalLoop=1;jettySize=auto;html=1;endArrow=ERzeroToMany;endFill=1;" parent="1" source="27" target="99" edge="1">
                    <mxGeometry relative="1" as="geometry"/>
                </mxCell>
                <mxCell id="118" style="edgeStyle=orthogonalEdgeStyle;rounded=1;orthogonalLoop=1;jettySize=auto;html=1;endArrow=ERzeroToMany;endFill=1;" parent="1" source="67" target="88" edge="1">
                    <mxGeometry relative="1" as="geometry"/>
                </mxCell>
                <mxCell id="119" style="edgeStyle=orthogonalEdgeStyle;rounded=1;orthogonalLoop=1;jettySize=auto;html=1;entryX=0;entryY=0.5;entryDx=0;entryDy=0;endArrow=ERzeroToMany;endFill=1;" parent="1" source="81" target="95" edge="1">
                    <mxGeometry relative="1" as="geometry"/>
                </mxCell>
                <mxCell id="27" value="User" style="swimlane;fontStyle=0;childLayout=stackLayout;horizontal=1;startSize=26;horizontalStack=0;resizeParent=1;resizeParentMax=0;resizeLast=0;collapsible=1;marginBottom=0;align=center;fontSize=14;" parent="1" vertex="1">
                    <mxGeometry x="99.94" y="260" width="160" height="140" as="geometry">
                        <mxRectangle x="60" y="60" width="60" height="26" as="alternateBounds"/>
                    </mxGeometry>
                </mxCell>
                <mxCell id="28" value="uniqueId id:int" style="shape=partialRectangle;top=0;left=0;right=0;bottom=1;align=left;verticalAlign=middle;fillColor=none;spacingLeft=34;spacingRight=4;overflow=hidden;rotatable=0;points=[[0,0.5],[1,0.5]];portConstraint=eastwest;dropTarget=0;fontStyle=5;fontSize=12;" parent="27" vertex="1">
                    <mxGeometry y="26" width="160" height="30" as="geometry"/>
                </mxCell>
                <mxCell id="29" value="PK" style="shape=partialRectangle;top=0;left=0;bottom=0;fillColor=none;align=left;verticalAlign=middle;spacingLeft=4;spacingRight=4;overflow=hidden;rotatable=0;points=[];portConstraint=eastwest;part=1;fontSize=12;" parent="28" vertex="1" connectable="0">
                    <mxGeometry width="30" height="30" as="geometry"/>
                </mxCell>
                <mxCell id="30" value="name:string&#10;birthday:date&#10;email:string&#10;note:text（自己紹介）&#10;password:string&#10;" style="shape=partialRectangle;top=0;left=0;right=0;bottom=0;align=left;verticalAlign=top;fillColor=none;spacingLeft=34;spacingRight=4;overflow=hidden;rotatable=0;points=[[0,0.5],[1,0.5]];portConstraint=eastwest;dropTarget=0;fontSize=12;" parent="27" vertex="1">
                    <mxGeometry y="56" width="160" height="74" as="geometry"/>
                </mxCell>
                <mxCell id="31" value="" style="shape=partialRectangle;top=0;left=0;bottom=0;fillColor=none;align=left;verticalAlign=top;spacingLeft=4;spacingRight=4;overflow=hidden;rotatable=0;points=[];portConstraint=eastwest;part=1;fontSize=12;" parent="30" vertex="1" connectable="0">
                    <mxGeometry width="30" height="74" as="geometry"/>
                </mxCell>
                <mxCell id="36" value="" style="shape=partialRectangle;top=0;left=0;right=0;bottom=0;align=left;verticalAlign=top;fillColor=none;spacingLeft=34;spacingRight=4;overflow=hidden;rotatable=0;points=[[0,0.5],[1,0.5]];portConstraint=eastwest;dropTarget=0;fontSize=12;" parent="27" vertex="1">
                    <mxGeometry y="130" width="160" height="10" as="geometry"/>
                </mxCell>
                <mxCell id="37" value="" style="shape=partialRectangle;top=0;left=0;bottom=0;fillColor=none;align=left;verticalAlign=top;spacingLeft=4;spacingRight=4;overflow=hidden;rotatable=0;points=[];portConstraint=eastwest;part=1;fontSize=12;" parent="36" vertex="1" connectable="0">
                    <mxGeometry width="30" height="10" as="geometry"/>
                </mxCell>
                <mxCell id="92" value="UserProject" style="swimlane;fontStyle=0;childLayout=stackLayout;horizontal=1;startSize=26;horizontalStack=0;resizeParent=1;resizeParentMax=0;resizeLast=0;collapsible=1;marginBottom=0;align=center;fontSize=14;" parent="1" vertex="1">
                    <mxGeometry x="99.94" y="430" width="160" height="140" as="geometry">
                        <mxRectangle x="60" y="60" width="60" height="26" as="alternateBounds"/>
                    </mxGeometry>
                </mxCell>
                <mxCell id="93" value="uniqueId id:int" style="shape=partialRectangle;top=0;left=0;right=0;bottom=1;align=left;verticalAlign=middle;fillColor=none;spacingLeft=34;spacingRight=4;overflow=hidden;rotatable=0;points=[[0,0.5],[1,0.5]];portConstraint=eastwest;dropTarget=0;fontStyle=5;fontSize=12;" parent="92" vertex="1">
                    <mxGeometry y="26" width="160" height="30" as="geometry"/>
                </mxCell>
                <mxCell id="94" value="PK" style="shape=partialRectangle;top=0;left=0;bottom=0;fillColor=none;align=left;verticalAlign=middle;spacingLeft=4;spacingRight=4;overflow=hidden;rotatable=0;points=[];portConstraint=eastwest;part=1;fontSize=12;" parent="93" connectable="0" vertex="1">
                    <mxGeometry width="30" height="30" as="geometry"/>
                </mxCell>
                <mxCell id="95" value="user_id:int&#10;project_id:int" style="shape=partialRectangle;top=0;left=0;right=0;bottom=0;align=left;verticalAlign=top;fillColor=none;spacingLeft=34;spacingRight=4;overflow=hidden;rotatable=0;points=[[0,0.5],[1,0.5]];portConstraint=eastwest;dropTarget=0;fontSize=12;" parent="92" vertex="1">
                    <mxGeometry y="56" width="160" height="74" as="geometry"/>
                </mxCell>
                <mxCell id="96" value="FK&#10;FK" style="shape=partialRectangle;top=0;left=0;bottom=0;fillColor=none;align=left;verticalAlign=top;spacingLeft=4;spacingRight=4;overflow=hidden;rotatable=0;points=[];portConstraint=eastwest;part=1;fontSize=12;" parent="95" connectable="0" vertex="1">
                    <mxGeometry width="30" height="74" as="geometry"/>
                </mxCell>
                <mxCell id="97" value="" style="shape=partialRectangle;top=0;left=0;right=0;bottom=0;align=left;verticalAlign=top;fillColor=none;spacingLeft=34;spacingRight=4;overflow=hidden;rotatable=0;points=[[0,0.5],[1,0.5]];portConstraint=eastwest;dropTarget=0;fontSize=12;" parent="92" vertex="1">
                    <mxGeometry y="130" width="160" height="10" as="geometry"/>
                </mxCell>
                <mxCell id="98" value="" style="shape=partialRectangle;top=0;left=0;bottom=0;fillColor=none;align=left;verticalAlign=top;spacingLeft=4;spacingRight=4;overflow=hidden;rotatable=0;points=[];portConstraint=eastwest;part=1;fontSize=12;" parent="97" connectable="0" vertex="1">
                    <mxGeometry width="30" height="10" as="geometry"/>
                </mxCell>
                <mxCell id="78" value="Project" style="swimlane;fontStyle=0;childLayout=stackLayout;horizontal=1;startSize=26;horizontalStack=0;resizeParent=1;resizeParentMax=0;resizeLast=0;collapsible=1;marginBottom=0;align=center;fontSize=14;" parent="1" vertex="1">
                    <mxGeometry x="99.94" y="600" width="160" height="140" as="geometry">
                        <mxRectangle x="60" y="60" width="60" height="26" as="alternateBounds"/>
                    </mxGeometry>
                </mxCell>
                <mxCell id="79" value="uniqueId id:int" style="shape=partialRectangle;top=0;left=0;right=0;bottom=1;align=left;verticalAlign=middle;fillColor=none;spacingLeft=34;spacingRight=4;overflow=hidden;rotatable=0;points=[[0,0.5],[1,0.5]];portConstraint=eastwest;dropTarget=0;fontStyle=5;fontSize=12;" parent="78" vertex="1">
                    <mxGeometry y="26" width="160" height="30" as="geometry"/>
                </mxCell>
                <mxCell id="80" value="PK" style="shape=partialRectangle;top=0;left=0;bottom=0;fillColor=none;align=left;verticalAlign=middle;spacingLeft=4;spacingRight=4;overflow=hidden;rotatable=0;points=[];portConstraint=eastwest;part=1;fontSize=12;" parent="79" connectable="0" vertex="1">
                    <mxGeometry width="30" height="30" as="geometry"/>
                </mxCell>
                <mxCell id="81" value="name:string&#10;note:text（プロジェク&#10;トの説明）&#10;" style="shape=partialRectangle;top=0;left=0;right=0;bottom=0;align=left;verticalAlign=top;fillColor=none;spacingLeft=34;spacingRight=4;overflow=hidden;rotatable=0;points=[[0,0.5],[1,0.5]];portConstraint=eastwest;dropTarget=0;fontSize=12;" parent="78" vertex="1">
                    <mxGeometry y="56" width="160" height="74" as="geometry"/>
                </mxCell>
                <mxCell id="82" value="" style="shape=partialRectangle;top=0;left=0;bottom=0;fillColor=none;align=left;verticalAlign=top;spacingLeft=4;spacingRight=4;overflow=hidden;rotatable=0;points=[];portConstraint=eastwest;part=1;fontSize=12;" parent="81" connectable="0" vertex="1">
                    <mxGeometry width="30" height="74" as="geometry"/>
                </mxCell>
                <mxCell id="83" value="" style="shape=partialRectangle;top=0;left=0;right=0;bottom=0;align=left;verticalAlign=top;fillColor=none;spacingLeft=34;spacingRight=4;overflow=hidden;rotatable=0;points=[[0,0.5],[1,0.5]];portConstraint=eastwest;dropTarget=0;fontSize=12;" parent="78" vertex="1">
                    <mxGeometry y="130" width="160" height="10" as="geometry"/>
                </mxCell>
                <mxCell id="84" value="" style="shape=partialRectangle;top=0;left=0;bottom=0;fillColor=none;align=left;verticalAlign=top;spacingLeft=4;spacingRight=4;overflow=hidden;rotatable=0;points=[];portConstraint=eastwest;part=1;fontSize=12;" parent="83" connectable="0" vertex="1">
                    <mxGeometry width="30" height="10" as="geometry"/>
                </mxCell>
                <mxCell id="99" value="Follower" style="swimlane;fontStyle=0;childLayout=stackLayout;horizontal=1;startSize=26;horizontalStack=0;resizeParent=1;resizeParentMax=0;resizeLast=0;collapsible=1;marginBottom=0;align=center;fontSize=14;" parent="1" vertex="1">
                    <mxGeometry x="99.94" y="80" width="160" height="140" as="geometry">
                        <mxRectangle x="60" y="60" width="60" height="26" as="alternateBounds"/>
                    </mxGeometry>
                </mxCell>
                <mxCell id="100" value="uniqueId id:int" style="shape=partialRectangle;top=0;left=0;right=0;bottom=1;align=left;verticalAlign=middle;fillColor=none;spacingLeft=34;spacingRight=4;overflow=hidden;rotatable=0;points=[[0,0.5],[1,0.5]];portConstraint=eastwest;dropTarget=0;fontStyle=5;fontSize=12;" parent="99" vertex="1">
                    <mxGeometry y="26" width="160" height="30" as="geometry"/>
                </mxCell>
                <mxCell id="101" value="PK" style="shape=partialRectangle;top=0;left=0;bottom=0;fillColor=none;align=left;verticalAlign=middle;spacingLeft=4;spacingRight=4;overflow=hidden;rotatable=0;points=[];portConstraint=eastwest;part=1;fontSize=12;" parent="100" connectable="0" vertex="1">
                    <mxGeometry width="30" height="30" as="geometry"/>
                </mxCell>
                <mxCell id="102" value="follow_user_id:int&#10;followed_user_id:int" style="shape=partialRectangle;top=0;left=0;right=0;bottom=0;align=left;verticalAlign=top;fillColor=none;spacingLeft=34;spacingRight=4;overflow=hidden;rotatable=0;points=[[0,0.5],[1,0.5]];portConstraint=eastwest;dropTarget=0;fontSize=12;" parent="99" vertex="1">
                    <mxGeometry y="56" width="160" height="74" as="geometry"/>
                </mxCell>
                <mxCell id="103" value="FK&#10;FK" style="shape=partialRectangle;top=0;left=0;bottom=0;fillColor=none;align=left;verticalAlign=top;spacingLeft=4;spacingRight=4;overflow=hidden;rotatable=0;points=[];portConstraint=eastwest;part=1;fontSize=12;" parent="102" connectable="0" vertex="1">
                    <mxGeometry width="30" height="74" as="geometry"/>
                </mxCell>
                <mxCell id="104" value="" style="shape=partialRectangle;top=0;left=0;right=0;bottom=0;align=left;verticalAlign=top;fillColor=none;spacingLeft=34;spacingRight=4;overflow=hidden;rotatable=0;points=[[0,0.5],[1,0.5]];portConstraint=eastwest;dropTarget=0;fontSize=12;" parent="99" vertex="1">
                    <mxGeometry y="130" width="160" height="10" as="geometry"/>
                </mxCell>
                <mxCell id="105" value="" style="shape=partialRectangle;top=0;left=0;bottom=0;fillColor=none;align=left;verticalAlign=top;spacingLeft=4;spacingRight=4;overflow=hidden;rotatable=0;points=[];portConstraint=eastwest;part=1;fontSize=12;" parent="104" connectable="0" vertex="1">
                    <mxGeometry width="30" height="10" as="geometry"/>
                </mxCell>
                <mxCell id="85" value="ProjectSubject" style="swimlane;fontStyle=0;childLayout=stackLayout;horizontal=1;startSize=26;horizontalStack=0;resizeParent=1;resizeParentMax=0;resizeLast=0;collapsible=1;marginBottom=0;align=center;fontSize=14;" parent="1" vertex="1">
                    <mxGeometry x="320" y="600" width="160" height="140" as="geometry">
                        <mxRectangle x="60" y="60" width="60" height="26" as="alternateBounds"/>
                    </mxGeometry>
                </mxCell>
                <mxCell id="86" value="uniqueId id:int" style="shape=partialRectangle;top=0;left=0;right=0;bottom=1;align=left;verticalAlign=middle;fillColor=none;spacingLeft=34;spacingRight=4;overflow=hidden;rotatable=0;points=[[0,0.5],[1,0.5]];portConstraint=eastwest;dropTarget=0;fontStyle=5;fontSize=12;" parent="85" vertex="1">
                    <mxGeometry y="26" width="160" height="30" as="geometry"/>
                </mxCell>
                <mxCell id="87" value="PK" style="shape=partialRectangle;top=0;left=0;bottom=0;fillColor=none;align=left;verticalAlign=middle;spacingLeft=4;spacingRight=4;overflow=hidden;rotatable=0;points=[];portConstraint=eastwest;part=1;fontSize=12;" parent="86" connectable="0" vertex="1">
                    <mxGeometry width="30" height="30" as="geometry"/>
                </mxCell>
                <mxCell id="88" value="project_id:int&#10;subject_id:int" style="shape=partialRectangle;top=0;left=0;right=0;bottom=0;align=left;verticalAlign=top;fillColor=none;spacingLeft=34;spacingRight=4;overflow=hidden;rotatable=0;points=[[0,0.5],[1,0.5]];portConstraint=eastwest;dropTarget=0;fontSize=12;" parent="85" vertex="1">
                    <mxGeometry y="56" width="160" height="74" as="geometry"/>
                </mxCell>
                <mxCell id="89" value="FK&#10;FK" style="shape=partialRectangle;top=0;left=0;bottom=0;fillColor=none;align=left;verticalAlign=top;spacingLeft=4;spacingRight=4;overflow=hidden;rotatable=0;points=[];portConstraint=eastwest;part=1;fontSize=12;" parent="88" connectable="0" vertex="1">
                    <mxGeometry width="30" height="74" as="geometry"/>
                </mxCell>
                <mxCell id="90" value="" style="shape=partialRectangle;top=0;left=0;right=0;bottom=0;align=left;verticalAlign=top;fillColor=none;spacingLeft=34;spacingRight=4;overflow=hidden;rotatable=0;points=[[0,0.5],[1,0.5]];portConstraint=eastwest;dropTarget=0;fontSize=12;" parent="85" vertex="1">
                    <mxGeometry y="130" width="160" height="10" as="geometry"/>
                </mxCell>
                <mxCell id="91" value="" style="shape=partialRectangle;top=0;left=0;bottom=0;fillColor=none;align=left;verticalAlign=top;spacingLeft=4;spacingRight=4;overflow=hidden;rotatable=0;points=[];portConstraint=eastwest;part=1;fontSize=12;" parent="90" connectable="0" vertex="1">
                    <mxGeometry width="30" height="10" as="geometry"/>
                </mxCell>
                <mxCell id="122" value="StudiedRecord（勉強し&#10;た日を記録する）" style="swimlane;fontStyle=0;childLayout=stackLayout;horizontal=1;startSize=40;horizontalStack=0;resizeParent=1;resizeParentMax=0;resizeLast=0;collapsible=1;marginBottom=0;align=center;fontSize=14;" vertex="1" parent="1">
                    <mxGeometry x="320" y="260" width="160" height="200" as="geometry">
                        <mxRectangle x="60" y="60" width="60" height="26" as="alternateBounds"/>
                    </mxGeometry>
                </mxCell>
                <mxCell id="123" value="uniqueId id:int" style="shape=partialRectangle;top=0;left=0;right=0;bottom=1;align=left;verticalAlign=middle;fillColor=none;spacingLeft=34;spacingRight=4;overflow=hidden;rotatable=0;points=[[0,0.5],[1,0.5]];portConstraint=eastwest;dropTarget=0;fontStyle=5;fontSize=12;" vertex="1" parent="122">
                    <mxGeometry y="40" width="160" height="30" as="geometry"/>
                </mxCell>
                <mxCell id="124" value="PK" style="shape=partialRectangle;top=0;left=0;bottom=0;fillColor=none;align=left;verticalAlign=middle;spacingLeft=4;spacingRight=4;overflow=hidden;rotatable=0;points=[];portConstraint=eastwest;part=1;fontSize=12;" vertex="1" connectable="0" parent="123">
                    <mxGeometry width="30" height="30" as="geometry"/>
                </mxCell>
                <mxCell id="125" value="user_id:int&#10;date:date&#10;type:int(タイマーモー&#10;ドor色塗りモード）&#10;square_count:int&#10;（1マス10分）&#10;note:text（勉強内容を&#10;ユーザが記録する&#10;" style="shape=partialRectangle;top=0;left=0;right=0;bottom=0;align=left;verticalAlign=top;fillColor=none;spacingLeft=34;spacingRight=4;overflow=hidden;rotatable=0;points=[[0,0.5],[1,0.5]];portConstraint=eastwest;dropTarget=0;fontSize=12;" vertex="1" parent="122">
                    <mxGeometry y="70" width="160" height="120" as="geometry"/>
                </mxCell>
                <mxCell id="126" value="FK&#10;" style="shape=partialRectangle;top=0;left=0;bottom=0;fillColor=none;align=left;verticalAlign=top;spacingLeft=4;spacingRight=4;overflow=hidden;rotatable=0;points=[];portConstraint=eastwest;part=1;fontSize=12;" vertex="1" connectable="0" parent="125">
                    <mxGeometry width="30" height="120" as="geometry"/>
                </mxCell>
                <mxCell id="127" value="" style="shape=partialRectangle;top=0;left=0;right=0;bottom=0;align=left;verticalAlign=top;fillColor=none;spacingLeft=34;spacingRight=4;overflow=hidden;rotatable=0;points=[[0,0.5],[1,0.5]];portConstraint=eastwest;dropTarget=0;fontSize=12;" vertex="1" parent="122">
                    <mxGeometry y="190" width="160" height="10" as="geometry"/>
                </mxCell>
                <mxCell id="128" value="" style="shape=partialRectangle;top=0;left=0;bottom=0;fillColor=none;align=left;verticalAlign=top;spacingLeft=4;spacingRight=4;overflow=hidden;rotatable=0;points=[];portConstraint=eastwest;part=1;fontSize=12;" vertex="1" connectable="0" parent="127">
                    <mxGeometry width="30" height="10" as="geometry"/>
                </mxCell>
                <mxCell id="64" value="Subject（教科）" style="swimlane;fontStyle=0;childLayout=stackLayout;horizontal=1;startSize=26;horizontalStack=0;resizeParent=1;resizeParentMax=0;resizeLast=0;collapsible=1;marginBottom=0;align=center;fontSize=14;" parent="1" vertex="1">
                    <mxGeometry x="549.94" y="600" width="160" height="140" as="geometry">
                        <mxRectangle x="60" y="60" width="60" height="26" as="alternateBounds"/>
                    </mxGeometry>
                </mxCell>
                <mxCell id="65" value="uniqueId id:int" style="shape=partialRectangle;top=0;left=0;right=0;bottom=1;align=left;verticalAlign=middle;fillColor=none;spacingLeft=34;spacingRight=4;overflow=hidden;rotatable=0;points=[[0,0.5],[1,0.5]];portConstraint=eastwest;dropTarget=0;fontStyle=5;fontSize=12;" parent="64" vertex="1">
                    <mxGeometry y="26" width="160" height="30" as="geometry"/>
                </mxCell>
                <mxCell id="66" value="PK" style="shape=partialRectangle;top=0;left=0;bottom=0;fillColor=none;align=left;verticalAlign=middle;spacingLeft=4;spacingRight=4;overflow=hidden;rotatable=0;points=[];portConstraint=eastwest;part=1;fontSize=12;" parent="65" vertex="1" connectable="0">
                    <mxGeometry width="30" height="30" as="geometry"/>
                </mxCell>
                <mxCell id="67" value="logo:string（ロゴの保&#10;存場所のpath）&#10;name:string&#10;color:string（マス目を&#10;塗る色）" style="shape=partialRectangle;top=0;left=0;right=0;bottom=0;align=left;verticalAlign=top;fillColor=none;spacingLeft=34;spacingRight=4;overflow=hidden;rotatable=0;points=[[0,0.5],[1,0.5]];portConstraint=eastwest;dropTarget=0;fontSize=12;" parent="64" vertex="1">
                    <mxGeometry y="56" width="160" height="74" as="geometry"/>
                </mxCell>
                <mxCell id="68" value="" style="shape=partialRectangle;top=0;left=0;bottom=0;fillColor=none;align=left;verticalAlign=top;spacingLeft=4;spacingRight=4;overflow=hidden;rotatable=0;points=[];portConstraint=eastwest;part=1;fontSize=12;" parent="67" vertex="1" connectable="0">
                    <mxGeometry width="30" height="74" as="geometry"/>
                </mxCell>
                <mxCell id="69" value="" style="shape=partialRectangle;top=0;left=0;right=0;bottom=0;align=left;verticalAlign=top;fillColor=none;spacingLeft=34;spacingRight=4;overflow=hidden;rotatable=0;points=[[0,0.5],[1,0.5]];portConstraint=eastwest;dropTarget=0;fontSize=12;" parent="64" vertex="1">
                    <mxGeometry y="130" width="160" height="10" as="geometry"/>
                </mxCell>
                <mxCell id="70" value="" style="shape=partialRectangle;top=0;left=0;bottom=0;fillColor=none;align=left;verticalAlign=top;spacingLeft=4;spacingRight=4;overflow=hidden;rotatable=0;points=[];portConstraint=eastwest;part=1;fontSize=12;" parent="69" vertex="1" connectable="0">
                    <mxGeometry width="30" height="10" as="geometry"/>
                </mxCell>
                <mxCell id="138" value="" style="edgeStyle=orthogonalEdgeStyle;fontSize=12;html=1;endArrow=ERzeroToMany;endFill=1;elbow=vertical;rounded=0;exitX=1;exitY=0.5;exitDx=0;exitDy=0;entryX=0;entryY=0.5;entryDx=0;entryDy=0;" edge="1" parent="1" source="125" target="134">
                    <mxGeometry width="100" height="100" relative="1" as="geometry">
                        <mxPoint x="450" y="472" as="sourcePoint"/>
                        <mxPoint x="549.94" y="365" as="targetPoint"/>
                        <Array as="points">
                            <mxPoint x="480" y="365"/>
                        </Array>
                    </mxGeometry>
                </mxCell>
                <mxCell id="141" style="edgeStyle=orthogonalEdgeStyle;rounded=1;orthogonalLoop=1;jettySize=auto;html=1;entryX=1;entryY=0.5;entryDx=0;entryDy=0;endArrow=ERzeroToMany;endFill=1;exitX=1;exitY=0.5;exitDx=0;exitDy=0;" edge="1" parent="1" source="67" target="134">
                    <mxGeometry relative="1" as="geometry">
                        <mxPoint x="860" y="680" as="sourcePoint"/>
                        <mxPoint x="860" y="510" as="targetPoint"/>
                    </mxGeometry>
                </mxCell>
                <mxCell id="131" value="SquareRecordSubject&#10;(マス目の教科）" style="swimlane;fontStyle=0;childLayout=stackLayout;horizontal=1;startSize=40;horizontalStack=0;resizeParent=1;resizeParentMax=0;resizeLast=0;collapsible=1;marginBottom=0;align=center;fontSize=14;" vertex="1" parent="1">
                    <mxGeometry x="549.94" y="260" width="160" height="150" as="geometry">
                        <mxRectangle x="60" y="60" width="60" height="26" as="alternateBounds"/>
                    </mxGeometry>
                </mxCell>
                <mxCell id="132" value="uniqueId id:int" style="shape=partialRectangle;top=0;left=0;right=0;bottom=1;align=left;verticalAlign=middle;fillColor=none;spacingLeft=34;spacingRight=4;overflow=hidden;rotatable=0;points=[[0,0.5],[1,0.5]];portConstraint=eastwest;dropTarget=0;fontStyle=5;fontSize=12;" vertex="1" parent="131">
                    <mxGeometry y="40" width="160" height="30" as="geometry"/>
                </mxCell>
                <mxCell id="133" value="PK" style="shape=partialRectangle;top=0;left=0;bottom=0;fillColor=none;align=left;verticalAlign=middle;spacingLeft=4;spacingRight=4;overflow=hidden;rotatable=0;points=[];portConstraint=eastwest;part=1;fontSize=12;" vertex="1" connectable="0" parent="132">
                    <mxGeometry width="30" height="30" as="geometry"/>
                </mxCell>
                <mxCell id="134" value="square_record_id:int&#10;subject_id:int" style="shape=partialRectangle;top=0;left=0;right=0;bottom=0;align=left;verticalAlign=top;fillColor=none;spacingLeft=34;spacingRight=4;overflow=hidden;rotatable=0;points=[[0,0.5],[1,0.5]];portConstraint=eastwest;dropTarget=0;fontSize=12;" vertex="1" parent="131">
                    <mxGeometry y="70" width="160" height="70" as="geometry"/>
                </mxCell>
                <mxCell id="135" value="FK&#10;FK" style="shape=partialRectangle;top=0;left=0;bottom=0;fillColor=none;align=left;verticalAlign=top;spacingLeft=4;spacingRight=4;overflow=hidden;rotatable=0;points=[];portConstraint=eastwest;part=1;fontSize=12;" vertex="1" connectable="0" parent="134">
                    <mxGeometry width="30" height="70" as="geometry"/>
                </mxCell>
                <mxCell id="136" value="" style="shape=partialRectangle;top=0;left=0;right=0;bottom=0;align=left;verticalAlign=top;fillColor=none;spacingLeft=34;spacingRight=4;overflow=hidden;rotatable=0;points=[[0,0.5],[1,0.5]];portConstraint=eastwest;dropTarget=0;fontSize=12;" vertex="1" parent="131">
                    <mxGeometry y="140" width="160" height="10" as="geometry"/>
                </mxCell>
                <mxCell id="137" value="" style="shape=partialRectangle;top=0;left=0;bottom=0;fillColor=none;align=left;verticalAlign=top;spacingLeft=4;spacingRight=4;overflow=hidden;rotatable=0;points=[];portConstraint=eastwest;part=1;fontSize=12;" vertex="1" connectable="0" parent="136">
                    <mxGeometry width="30" height="10" as="geometry"/>
                </mxCell>
                <mxCell id="143" value="↑このテーブルのマス目の合&lt;br&gt;計値が「総勉強時間」になる&lt;br&gt;「総勉強時間」≠「各教科の勉強時間」" style="text;html=1;align=left;verticalAlign=middle;resizable=0;points=[];autosize=1;" vertex="1" parent="1">
                    <mxGeometry x="319.94" y="460" width="230" height="50" as="geometry"/>
                </mxCell>
                <mxCell id="144" value="↑StudiedRecordテーブルのマス目と&lt;br&gt;このテーブルを利用して、&lt;br&gt;「各教科の総勉強間」を計算する。" style="text;html=1;align=left;verticalAlign=middle;resizable=0;points=[];autosize=1;" vertex="1" parent="1">
                    <mxGeometry x="549.94" y="410" width="210" height="50" as="geometry"/>
                </mxCell>
            </root>
        </mxGraphModel>
    </diagram>
</mxfile>